HIERARCHY
ROOT hip
{
	OFFSET 0.000000 0.000000 0.000000
	CHANNELS 6 Xposition Yposition Zposition Xrotation Zrotation Yrotation 
	JOINT abdomen
	{
		OFFSET 0.000000 3.422050 0.000000
		CHANNELS 3 Xrotation Zrotation Yrotation 
		JOINT chest
		{
			OFFSET 0.000000 8.486693 -0.6844110
			CHANNELS 3 Xrotation Zrotation Yrotation 
			JOINT neck
			{
				OFFSET 0.000000 10.26616 -0.2737640
				CHANNELS 3 Xrotation Zrotation Yrotation 
				JOINT head
				{
					OFFSET 0.000000 3.148285 0.000000
					CHANNELS 3 Xrotation Zrotation Yrotation 
					End Site
					{
						OFFSET 0.000000 3.148289 0.000000
					}
				}
			}
			JOINT lCollar
			{
				OFFSET 3.422053 6.707223 -0.8212930
				CHANNELS 3 Yrotation Zrotation Xrotation 
				JOINT lShldr
				{
					OFFSET 3.285171 0.000000 0.000000
					CHANNELS 3 Zrotation Yrotation Xrotation 
					JOINT lForeArm
					{
						OFFSET 10.12928 0.000000 0.000000
						CHANNELS 3 Yrotation Zrotation Xrotation 
						JOINT lHand
						{
							OFFSET 8.486692 0.000000 0.000000
							CHANNELS 3 Zrotation Yrotation Xrotation 
							End Site
							{
								OFFSET 4.106464 0.000000 0.000000
							}
						}
					}
				}
			}
			JOINT rCollar
			{
				OFFSET -3.558935 6.707223 -0.8212930
				CHANNELS 3 Yrotation Zrotation Xrotation 
				JOINT rShldr
				{
					OFFSET -3.148289 0.000000 0.000000
					CHANNELS 3 Zrotation Yrotation Xrotation 
					JOINT rForeArm
					{
						OFFSET -10.26616 0.000000 0.000000
						CHANNELS 3 Yrotation Zrotation Xrotation 
						JOINT rHand
						{
							OFFSET -8.349810 0.000000 0.000000
							CHANNELS 3 Zrotation Yrotation Xrotation 
							End Site
							{
								OFFSET -4.106464 0.000000 0.000000
							}
						}
					}
				}
			}
		}
	}
	JOINT lThigh
	{
		OFFSET 5.338403 -1.642589 1.368821
		CHANNELS 3 Xrotation Zrotation Yrotation 
		JOINT lShin
		{
			OFFSET -2.053232 -20.12167 0.000000
			CHANNELS 3 Xrotation Zrotation Yrotation 
			JOINT lFoot
			{
				OFFSET 0.000000 -19.30038 -1.231939
				CHANNELS 3 Xrotation Yrotation Zrotation 
				End Site
				{
					OFFSET 0.000000 -2.463878 4.653993
				}
			}
		}
	}
	JOINT rThigh
	{
		OFFSET -5.338403 -1.642589 1.368821
		CHANNELS 3 Xrotation Zrotation Yrotation 
		JOINT rShin
		{
			OFFSET 2.053232 -20.12167 0.000000
			CHANNELS 3 Xrotation Zrotation Yrotation 
			JOINT rFoot
			{
				OFFSET 0.000000 -19.30038 -1.231939
				CHANNELS 3 Xrotation Yrotation Zrotation 
				End Site
				{
					OFFSET 0.000000 -2.463878 4.653993
				}
			}
		}
	}
}
MOTION
Frames:	18
Frame Time:	0.03333333
0.000000 43.52850 0.000000 0.000000 0.000000 0.000000 0.000000 0.000000 0.000000 0.000000 0.000000 0.000000 0.000000 0.000000 0.000000 0.000000 0.000000 0.000000 0.000000 0.000000 0.000000 -72.00000 0.000000 0.000000 0.000000 0.000000 0.000000 0.000000 0.000000 0.000000 0.000000 0.000000 0.000000 72.00000 0.000000 0.000000 0.000000 0.000000 0.000000 0.000000 0.000000 0.000000 0.000000 10.00000 0.000000 0.000000 -5.000000 0.000000 0.000000 0.000000 0.000000 0.000000 -10.00000 0.000000 0.000000 5.000000 0.000000 0.000000 0.000000 0.000000 
0.000000 43.52850 0.000000 1.000000 0.000000 0.000000 1.000000 0.000000 0.000000 1.000000 0.000000 0.000000 1.000000 0.000000 0.000000 1.000000 0.000000 0.000000 0.000000 0.000000 1.000000 -72.00000 0.000000 0.000000 0.000000 0.000000 1.000000 0.000000 0.000000 1.000000 0.000000 0.000000 1.000000 72.00000 0.000000 0.000000 0.000000 0.000000 1.000000 0.000000 0.000000 1.000000 0.000000 10.00000 0.000000 0.000000 -5.000000 0.000000 1.000000 0.000000 0.000000 0.000000 -10.00000 0.000000 0.000000 5.000000 0.000000 1.000000 0.000000 0.000000 
0.000000 43.27740 0.6153846 1.000000 0.000000 0.000000 0.9807692 0.000000 0.000000 0.4615385 0.000000 0.000000 1.000000 0.000000 0.000000 1.000000 0.000000 0.000000 0.000000 0.000000 0.9907162 -68.26923 0.000000 0.000000 -1.230769 0.000000 0.9807692 0.000000 0.000000 -1.346154 0.000000 0.000000 1.000000 68.26923 0.000000 0.000000 1.230769 0.000000 0.9807692 0.000000 0.000000 -1.346154 -2.384615 10.00000 0.000000 2.000000 -5.000000 0.000000 1.500000 0.000000 0.000000 0.3076923 -10.00000 0.000000 1.076923 5.000000 0.000000 -0.4615385 -0.5384616 0.000000 
0.000000 43.02631 1.230769 1.000000 0.000000 0.000000 0.9615384 0.000000 0.000000 -0.07692308 0.000000 0.000000 1.000000 0.000000 0.000000 1.000000 0.000000 0.000000 0.000000 0.000000 0.9814324 -64.53846 0.000000 0.000000 -2.461539 0.000000 0.9615384 0.000000 0.000000 -3.692308 0.000000 0.000000 1.000000 64.53846 0.000000 0.000000 2.461539 0.000000 0.9615384 0.000000 0.000000 -3.692308 -4.769231 10.00000 0.000000 4.000000 -5.000000 0.000000 2.000000 0.000000 0.000000 0.6153846 -10.00000 0.000000 2.153846 5.000000 0.000000 -1.923077 -1.076923 0.000000 
0.000000 42.77521 1.846154 1.000000 0.000000 0.000000 0.9423077 0.000000 0.000000 -0.6153846 0.000000 0.000000 1.000000 0.000000 0.000000 1.000000 0.000000 0.000000 0.000000 0.000000 0.9721485 -60.80769 0.000000 0.000000 -3.692308 0.000000 0.9423077 0.000000 0.000000 -6.038462 0.000000 0.000000 1.000000 60.80769 0.000000 0.000000 3.692308 0.000000 0.9423077 0.000000 0.000000 -6.038462 -7.153846 10.00000 0.000000 6.000000 -5.000000 0.000000 2.500000 0.000000 0.000000 0.9230769 -10.00000 0.000000 3.230769 5.000000 0.000000 -3.384615 -1.615385 0.000000 
0.000000 42.52412 2.461539 1.000000 0.000000 0.000000 0.9230769 0.000000 0.000000 -1.153846 0.000000 0.000000 1.000000 0.000000 0.000000 1.000000 0.000000 0.000000 0.000000 0.000000 0.9628648 -57.07692 0.000000 0.000000 -4.923077 0.000000 0.9230769 0.000000 0.000000 -8.384615 0.000000 0.000000 1.000000 57.07692 0.000000 0.000000 4.923077 0.000000 0.9230769 0.000000 0.000000 -8.384615 -9.538462 10.00000 0.000000 8.000000 -5.000000 0.000000 3.000000 0.000000 0.000000 1.230769 -10.00000 0.000000 4.307693 5.000000 0.000000 -4.846154 -2.153846 0.000000 
0.000000 42.27302 3.076923 1.000000 0.000000 0.000000 0.9038461 0.000000 0.000000 -1.692308 0.000000 0.000000 1.000000 0.000000 0.000000 1.000000 0.000000 0.000000 0.000000 0.000000 0.9535809 -53.34615 0.000000 0.000000 -6.153846 0.000000 0.9038461 0.000000 0.000000 -10.73077 0.000000 0.000000 1.000000 53.34615 0.000000 0.000000 6.153846 0.000000 0.9038461 0.000000 0.000000 -10.73077 -11.92308 10.00000 0.000000 10.00000 -5.000000 0.000000 3.500000 0.000000 0.000000 1.538462 -10.00000 0.000000 5.384615 5.000000 0.000000 -6.307693 -2.692308 0.000000 
0.000000 42.02192 3.692308 1.000000 0.000000 0.000000 0.8846154 0.000000 0.000000 -2.230769 0.000000 0.000000 1.000000 0.000000 0.000000 1.000000 0.000000 0.000000 0.000000 0.000000 0.9442971 -49.61538 0.000000 0.000000 -7.384615 0.000000 0.8846154 0.000000 0.000000 -13.07692 0.000000 0.000000 1.000000 49.61538 0.000000 0.000000 7.384615 0.000000 0.8846154 0.000000 0.000000 -13.07692 -14.30769 10.00000 0.000000 12.00000 -5.000000 0.000000 4.000000 0.000000 0.000000 1.846154 -10.00000 0.000000 6.461538 5.000000 0.000000 -7.769231 -3.230769 0.000000 
0.000000 41.77083 4.307693 1.000000 0.000000 0.000000 0.8653846 0.000000 0.000000 -2.769231 0.000000 0.000000 1.000000 0.000000 0.000000 1.000000 0.000000 0.000000 0.000000 0.000000 0.9350133 -45.88462 0.000000 0.000000 -8.615385 0.000000 0.8653846 0.000000 0.000000 -15.42308 0.000000 0.000000 1.000000 45.88462 0.000000 0.000000 8.615385 0.000000 0.8653846 0.000000 0.000000 -15.42308 -16.69231 10.00000 0.000000 14.00000 -5.000000 0.000000 4.500000 0.000000 0.000000 2.153846 -10.00000 0.000000 7.538462 5.000000 0.000000 -9.230769 -3.769231 0.000000 
0.000000 41.51973 4.923077 1.000000 0.000000 0.000000 0.8461539 0.000000 0.000000 -3.307692 0.000000 0.000000 1.000000 0.000000 0.000000 1.000000 0.000000 0.000000 0.000000 0.000000 0.9257295 -42.15385 0.000000 0.000000 -9.846154 0.000000 0.8461539 0.000000 0.000000 -17.76923 0.000000 0.000000 1.000000 42.15385 0.000000 0.000000 9.846154 0.000000 0.8461539 0.000000 0.000000 -17.76923 -19.07692 10.00000 0.000000 16.00000 -5.000000 0.000000 5.000000 0.000000 0.000000 2.461539 -10.00000 0.000000 8.615385 5.000000 0.000000 -10.69231 -4.307693 0.000000 
0.000000 41.26863 5.538462 1.000000 0.000000 0.000000 0.8269231 0.000000 0.000000 -3.846154 0.000000 0.000000 1.000000 0.000000 0.000000 1.000000 0.000000 0.000000 0.000000 0.000000 0.9164456 -38.42308 0.000000 0.000000 -11.07692 0.000000 0.8269231 0.000000 0.000000 -20.11539 0.000000 0.000000 1.000000 38.42308 0.000000 0.000000 11.07692 0.000000 0.8269231 0.000000 0.000000 -20.11539 -21.46154 10.00000 0.000000 18.00000 -5.000000 0.000000 5.500000 0.000000 0.000000 2.769231 -10.00000 0.000000 9.692307 5.000000 0.000000 -12.15385 -4.846154 0.000000 
0.000000 41.01754 6.153846 1.000000 0.000000 0.000000 0.8076923 0.000000 0.000000 -4.384615 0.000000 0.000000 1.000000 0.000000 0.000000 1.000000 0.000000 0.000000 0.000000 0.000000 0.9071618 -34.69231 0.000000 0.000000 -12.30769 0.000000 0.8076923 0.000000 0.000000 -22.46154 0.000000 0.000000 1.000000 34.69231 0.000000 0.000000 12.30769 0.000000 0.8076923 0.000000 0.000000 -22.46154 -23.84615 10.00000 0.000000 20.00000 -5.000000 0.000000 6.000000 0.000000 0.000000 3.076923 -10.00000 0.000000 10.76923 5.000000 0.000000 -13.61539 -5.384615 0.000000 
0.000000 40.76645 6.769231 1.000000 0.000000 0.000000 0.7884616 0.000000 0.000000 -4.923077 0.000000 0.000000 1.000000 0.000000 0.000000 1.000000 0.000000 0.000000 0.000000 0.000000 0.8978780 -30.96154 0.000000 0.000000 -13.53846 0.000000 0.7884616 0.000000 0.000000 -24.80769 0.000000 0.000000 1.000000 30.96154 0.000000 0.000000 13.53846 0.000000 0.7884616 0.000000 0.000000 -24.80769 -26.23077 10.00000 0.000000 22.00000 -5.000000 0.000000 6.500000 0.000000 0.000000 3.384615 -10.00000 0.000000 11.84615 5.000000 0.000000 -15.07692 -5.923077 0.000000 
0.000000 40.51535 7.384615 1.000000 0.000000 0.000000 0.7692308 0.000000 0.000000 -5.461538 0.000000 0.000000 1.000000 0.000000 0.000000 1.000000 0.000000 0.000000 0.000000 0.000000 0.8885942 -27.23077 0.000000 0.000000 -14.76923 0.000000 0.7692308 0.000000 0.000000 -27.15385 0.000000 0.000000 1.000000 27.23077 0.000000 0.000000 14.76923 0.000000 0.7692308 0.000000 0.000000 -27.15385 -28.61539 10.00000 0.000000 24.00000 -5.000000 0.000000 7.000000 0.000000 0.000000 3.692308 -10.00000 0.000000 12.92308 5.000000 0.000000 -16.53846 -6.461538 0.000000 
0.000000 40.26425 8.000000 1.000000 0.000000 0.000000 0.7500000 0.000000 0.000000 -6.000000 0.000000 0.000000 1.000000 0.000000 0.000000 1.000000 0.000000 0.000000 0.000000 0.000000 0.8793104 -23.50000 0.000000 0.000000 -16.00000 0.000000 0.7500000 0.000000 0.000000 -29.50000 0.000000 0.000000 1.000000 23.50000 0.000000 0.000000 16.00000 0.000000 0.7500000 0.000000 0.000000 -29.50000 -31.00000 10.00000 0.000000 26.00000 -5.000000 0.000000 7.500000 0.000000 0.000000 4.000000 -10.00000 0.000000 14.00000 5.000000 0.000000 -18.00000 -7.000000 0.000000 
0.000000 40.01316 8.615385 1.000000 0.000000 0.000000 0.7307692 0.000000 0.000000 -6.538462 0.000000 0.000000 1.000000 0.000000 0.000000 1.000000 0.000000 0.000000 0.000000 0.000000 0.8700265 -19.76923 0.000000 0.000000 -17.23077 0.000000 0.7307692 0.000000 0.000000 -31.84615 0.000000 0.000000 1.000000 19.76923 0.000000 0.000000 17.23077 0.000000 0.7307692 0.000000 0.000000 -31.84615 -31.00000 10.00000 0.000000 25.00000 -5.000000 0.000000 8.000000 0.000000 0.000000 4.307693 -10.00000 0.000000 15.07692 5.000000 0.000000 -19.46154 -7.538462 0.000000 
0.000000 39.76206 9.230769 1.000000 0.000000 0.000000 0.7115384 0.000000 0.000000 -7.076923 0.000000 0.000000 1.000000 0.000000 0.000000 1.000000 0.000000 0.000000 0.000000 0.000000 0.8607427 -16.03846 0.000000 0.000000 -18.46154 0.000000 0.7115384 0.000000 0.000000 -34.19231 0.000000 0.000000 1.000000 16.03846 0.000000 0.000000 18.46154 0.000000 0.7115384 0.000000 0.000000 -34.19231 -31.00000 10.00000 0.000000 24.00000 -5.000000 0.000000 8.500000 0.000000 0.000000 4.615385 -10.00000 0.000000 16.15385 5.000000 0.000000 -20.92308 -8.076923 0.000000 
0.000000 39.51096 9.846154 1.000000 0.000000 0.000000 0.6923077 0.000000 0.000000 -7.615385 0.000000 0.000000 1.000000 0.000000 0.000000 1.000000 0.000000 0.000000 0.000000 0.000000 0.8514589 -12.30769 0.000000 0.000000 -19.69231 0.000000 0.6923077 0.000000 0.000000 -36.53846 0.000000 0.000000 1.000000 12.30769 0.000000 0.000000 19.69231 0.000000 0.6923077 0.000000 0.000000 -36.53846 -31.00000 10.00000 0.000000 23.00000 -5.000000 0.000000 9.000000 0.000000 0.000000 4.923077 -10.00000 0.000000 17.23077 5.000000 0.000000 -22.38461 -8.615385 0.000000 
